<mxfile host="app.diagrams.net" modified="2023-07-17T05:43:58.516Z" agent="Mozilla/5.0 (Windows NT 10.0; Win64; x64) AppleWebKit/537.36 (KHTML, like Gecko) Chrome/114.0.0.0 Safari/537.36" etag="lAJln7b8b_pGp045TjUm" version="21.5.2" type="github">
  <diagram name="第 1 页" id="CmIfuRxug64lyIOAI_8N">
    <mxGraphModel dx="1050" dy="581" grid="0" gridSize="10" guides="1" tooltips="1" connect="1" arrows="1" fold="1" page="1" pageScale="1" pageWidth="3300" pageHeight="4681" math="0" shadow="0">
      <root>
        <mxCell id="0" />
        <mxCell id="1" parent="0" />
        <mxCell id="scfHjUHLNQKsAT-ztNzQ-1" value="&lt;span style=&quot;font-size: 20px;&quot;&gt;Driver Radar&lt;/span&gt;" style="html=1;fillColor=#54C0FF;verticalAlign=top;" parent="1" vertex="1">
          <mxGeometry x="429" y="166" width="688" height="483" as="geometry" />
        </mxCell>
        <mxCell id="scfHjUHLNQKsAT-ztNzQ-2" value="Driver Radar Process" style="ellipse;whiteSpace=wrap;html=1;fontSize=20;fillColor=#54C0FF;" parent="1" vertex="1">
          <mxGeometry x="729" y="321" width="140" height="70" as="geometry" />
        </mxCell>
        <mxCell id="scfHjUHLNQKsAT-ztNzQ-3" value="Radar Driver" style="shape=umlActor;verticalLabelPosition=bottom;verticalAlign=top;html=1;fontSize=20;fillColor=#54C0FF;" parent="1" vertex="1">
          <mxGeometry x="276" y="555" width="30" height="60" as="geometry" />
        </mxCell>
        <mxCell id="scfHjUHLNQKsAT-ztNzQ-4" value="IMU" style="shape=umlActor;verticalLabelPosition=bottom;verticalAlign=top;html=1;fontSize=20;fillColor=#54C0FF;" parent="1" vertex="1">
          <mxGeometry x="260" y="357" width="30" height="91" as="geometry" />
        </mxCell>
        <mxCell id="scfHjUHLNQKsAT-ztNzQ-5" value="Perception Radar" style="shape=umlActor;verticalLabelPosition=bottom;verticalAlign=top;html=1;fontSize=20;fillColor=#54C0FF;" parent="1" vertex="1">
          <mxGeometry x="1257" y="184" width="30" height="85" as="geometry" />
        </mxCell>
        <mxCell id="scfHjUHLNQKsAT-ztNzQ-6" value="vehicle" style="shape=umlActor;verticalLabelPosition=bottom;verticalAlign=top;html=1;fontSize=20;fillColor=#54C0FF;" parent="1" vertex="1">
          <mxGeometry x="271" y="188" width="30" height="77" as="geometry" />
        </mxCell>
        <mxCell id="scfHjUHLNQKsAT-ztNzQ-7" value="&lt;font style=&quot;font-size: 13px;&quot;&gt;获取车辆信息&lt;/font&gt;" style="ellipse;whiteSpace=wrap;html=1;fontSize=13;fillColor=#54C0FF;" parent="1" vertex="1">
          <mxGeometry x="472" y="240" width="147" height="52" as="geometry" />
        </mxCell>
        <mxCell id="scfHjUHLNQKsAT-ztNzQ-8" value="" style="line;strokeWidth=1;fillColor=#54C0FF;align=left;verticalAlign=middle;spacingTop=-1;spacingLeft=3;spacingRight=3;rotatable=0;labelPosition=right;points=[];portConstraint=eastwest;fontSize=20;" parent="1" vertex="1">
          <mxGeometry x="301" y="257" width="171" height="8" as="geometry" />
        </mxCell>
        <mxCell id="scfHjUHLNQKsAT-ztNzQ-9" value="&lt;font style=&quot;font-size: 13px&quot;&gt;获取底层驱动CAN数据&lt;/font&gt;" style="ellipse;whiteSpace=wrap;html=1;fontSize=13;fillColor=#54C0FF;" parent="1" vertex="1">
          <mxGeometry x="482" y="559" width="147" height="52" as="geometry" />
        </mxCell>
        <mxCell id="scfHjUHLNQKsAT-ztNzQ-10" value="" style="line;strokeWidth=1;fillColor=#54C0FF;align=left;verticalAlign=middle;spacingTop=-1;spacingLeft=3;spacingRight=3;rotatable=0;labelPosition=right;points=[];portConstraint=eastwest;fontSize=20;" parent="1" vertex="1">
          <mxGeometry x="295" y="581" width="187" height="8" as="geometry" />
        </mxCell>
        <mxCell id="scfHjUHLNQKsAT-ztNzQ-11" value="坐标点、速度、加速度等数据" style="ellipse;whiteSpace=wrap;html=1;fontSize=13;fillColor=#54C0FF;" parent="1" vertex="1">
          <mxGeometry x="941" y="175.5" width="147" height="52" as="geometry" />
        </mxCell>
        <mxCell id="scfHjUHLNQKsAT-ztNzQ-12" value="FSM" style="shape=umlActor;verticalLabelPosition=bottom;verticalAlign=top;html=1;fontSize=20;fillColor=#54C0FF;" parent="1" vertex="1">
          <mxGeometry x="1268" y="551" width="30" height="60" as="geometry" />
        </mxCell>
        <mxCell id="scfHjUHLNQKsAT-ztNzQ-13" value="" style="line;strokeWidth=1;fillColor=#54C0FF;align=left;verticalAlign=middle;spacingTop=-1;spacingLeft=3;spacingRight=3;rotatable=0;labelPosition=right;points=[];portConstraint=eastwest;fontSize=20;" parent="1" vertex="1">
          <mxGeometry x="1088" y="195" width="171" height="8" as="geometry" />
        </mxCell>
        <mxCell id="scfHjUHLNQKsAT-ztNzQ-14" value="进程监测" style="ellipse;whiteSpace=wrap;html=1;fontSize=13;fillColor=#54C0FF;" parent="1" vertex="1">
          <mxGeometry x="952" y="571" width="147" height="44" as="geometry" />
        </mxCell>
        <mxCell id="scfHjUHLNQKsAT-ztNzQ-15" value="" style="endArrow=open;endSize=12;dashed=1;html=1;rounded=0;fontSize=13;exitX=0.093;exitY=0.157;exitDx=0;exitDy=0;exitPerimeter=0;fillColor=#54C0FF;" parent="1" source="scfHjUHLNQKsAT-ztNzQ-2" edge="1">
          <mxGeometry width="160" relative="1" as="geometry">
            <mxPoint x="733" y="320" as="sourcePoint" />
            <mxPoint x="619" y="271" as="targetPoint" />
          </mxGeometry>
        </mxCell>
        <mxCell id="scfHjUHLNQKsAT-ztNzQ-16" value="" style="endArrow=open;endSize=12;dashed=1;html=1;rounded=0;fontSize=13;fillColor=#54C0FF;" parent="1" edge="1">
          <mxGeometry width="160" relative="1" as="geometry">
            <mxPoint x="753" y="383" as="sourcePoint" />
            <mxPoint x="623" y="440.01" as="targetPoint" />
          </mxGeometry>
        </mxCell>
        <mxCell id="scfHjUHLNQKsAT-ztNzQ-17" value="" style="endArrow=open;endSize=12;dashed=1;html=1;rounded=0;fontSize=13;entryX=1;entryY=0.5;entryDx=0;entryDy=0;fillColor=#54C0FF;" parent="1" target="scfHjUHLNQKsAT-ztNzQ-9" edge="1">
          <mxGeometry width="160" relative="1" as="geometry">
            <mxPoint x="762" y="386" as="sourcePoint" />
            <mxPoint x="641" y="578" as="targetPoint" />
          </mxGeometry>
        </mxCell>
        <mxCell id="scfHjUHLNQKsAT-ztNzQ-18" value="" style="line;strokeWidth=1;fillColor=#54C0FF;align=left;verticalAlign=middle;spacingTop=-1;spacingLeft=3;spacingRight=3;rotatable=0;labelPosition=right;points=[];portConstraint=eastwest;fontSize=20;" parent="1" vertex="1">
          <mxGeometry x="1098" y="510" width="171" height="174" as="geometry" />
        </mxCell>
        <mxCell id="scfHjUHLNQKsAT-ztNzQ-19" value="" style="endArrow=open;endSize=12;dashed=1;html=1;rounded=0;fontSize=13;exitX=1;exitY=0;exitDx=0;exitDy=0;fillColor=#54C0FF;" parent="1" source="scfHjUHLNQKsAT-ztNzQ-2" edge="1">
          <mxGeometry width="160" relative="1" as="geometry">
            <mxPoint x="860" y="293" as="sourcePoint" />
            <mxPoint x="941" y="199" as="targetPoint" />
          </mxGeometry>
        </mxCell>
        <mxCell id="scfHjUHLNQKsAT-ztNzQ-20" value="Radar Driver" style="shape=umlActor;verticalLabelPosition=bottom;verticalAlign=top;html=1;fontSize=20;fillColor=#54C0FF;" parent="1" vertex="1">
          <mxGeometry x="1268" y="352" width="30" height="85" as="geometry" />
        </mxCell>
        <mxCell id="scfHjUHLNQKsAT-ztNzQ-21" value="车辆、偏航率转为CAN数据下发至驱动层" style="ellipse;whiteSpace=wrap;html=1;fontSize=13;fillColor=#54C0FF;" parent="1" vertex="1">
          <mxGeometry x="953" y="313" width="145" height="87" as="geometry" />
        </mxCell>
        <mxCell id="scfHjUHLNQKsAT-ztNzQ-22" value="" style="endArrow=open;endSize=12;dashed=1;html=1;rounded=0;fontSize=13;entryX=0;entryY=0.5;entryDx=0;entryDy=0;fillColor=#54C0FF;" parent="1" target="scfHjUHLNQKsAT-ztNzQ-27" edge="1">
          <mxGeometry width="160" relative="1" as="geometry">
            <mxPoint x="850" y="379" as="sourcePoint" />
            <mxPoint x="949" y="436" as="targetPoint" />
          </mxGeometry>
        </mxCell>
        <mxCell id="scfHjUHLNQKsAT-ztNzQ-23" value="" style="endArrow=open;endSize=12;dashed=1;html=1;rounded=0;fontSize=13;fillColor=#54C0FF;" parent="1" edge="1">
          <mxGeometry width="160" relative="1" as="geometry">
            <mxPoint x="869" y="363" as="sourcePoint" />
            <mxPoint x="956" y="365" as="targetPoint" />
          </mxGeometry>
        </mxCell>
        <mxCell id="scfHjUHLNQKsAT-ztNzQ-24" value="" style="line;strokeWidth=1;fillColor=#54C0FF;align=left;verticalAlign=middle;spacingTop=-1;spacingLeft=3;spacingRight=3;rotatable=0;labelPosition=right;points=[];portConstraint=eastwest;fontSize=20;" parent="1" vertex="1">
          <mxGeometry x="1100" y="357" width="171" height="8" as="geometry" />
        </mxCell>
        <mxCell id="scfHjUHLNQKsAT-ztNzQ-25" value="获取IMU信息" style="ellipse;whiteSpace=wrap;html=1;fontSize=13;fillColor=#54C0FF;" parent="1" vertex="1">
          <mxGeometry x="472" y="404" width="147" height="52" as="geometry" />
        </mxCell>
        <mxCell id="scfHjUHLNQKsAT-ztNzQ-26" value="" style="line;strokeWidth=1;fillColor=#54C0FF;align=left;verticalAlign=middle;spacingTop=-1;spacingLeft=3;spacingRight=3;rotatable=0;labelPosition=right;points=[];portConstraint=eastwest;fontSize=20;" parent="1" vertex="1">
          <mxGeometry x="283" y="426" width="187" height="8" as="geometry" />
        </mxCell>
        <mxCell id="scfHjUHLNQKsAT-ztNzQ-27" value="毫米波雷达帧率监测" style="ellipse;whiteSpace=wrap;html=1;fontSize=13;fillColor=#54C0FF;" parent="1" vertex="1">
          <mxGeometry x="951" y="408" width="145" height="42" as="geometry" />
        </mxCell>
        <mxCell id="scfHjUHLNQKsAT-ztNzQ-28" value="目标框信息丢失" style="ellipse;whiteSpace=wrap;html=1;fontSize=13;fillColor=#54C0FF;" parent="1" vertex="1">
          <mxGeometry x="950" y="456" width="147" height="42" as="geometry" />
        </mxCell>
        <mxCell id="scfHjUHLNQKsAT-ztNzQ-29" value="" style="endArrow=open;endSize=12;dashed=1;html=1;rounded=0;fontSize=13;entryX=0;entryY=0.5;entryDx=0;entryDy=0;fillColor=#54C0FF;" parent="1" target="scfHjUHLNQKsAT-ztNzQ-28" edge="1">
          <mxGeometry width="160" relative="1" as="geometry">
            <mxPoint x="860" y="389" as="sourcePoint" />
            <mxPoint x="961" y="439" as="targetPoint" />
          </mxGeometry>
        </mxCell>
        <mxCell id="scfHjUHLNQKsAT-ztNzQ-30" value="" style="endArrow=open;endSize=12;dashed=1;html=1;rounded=0;fontSize=13;entryX=0;entryY=0.673;entryDx=0;entryDy=0;entryPerimeter=0;fillColor=#54C0FF;" parent="1" target="scfHjUHLNQKsAT-ztNzQ-14" edge="1">
          <mxGeometry width="160" relative="1" as="geometry">
            <mxPoint x="870" y="399" as="sourcePoint" />
            <mxPoint x="960" y="487" as="targetPoint" />
          </mxGeometry>
        </mxCell>
        <mxCell id="scfHjUHLNQKsAT-ztNzQ-33" value="" style="endArrow=none;html=1;rounded=0;entryX=0.25;entryY=0.1;entryDx=0;entryDy=0;entryPerimeter=0;fillColor=#54C0FF;" parent="1" target="scfHjUHLNQKsAT-ztNzQ-12" edge="1">
          <mxGeometry width="50" height="50" relative="1" as="geometry">
            <mxPoint x="1097" y="426" as="sourcePoint" />
            <mxPoint x="1147" y="376" as="targetPoint" />
          </mxGeometry>
        </mxCell>
        <mxCell id="scfHjUHLNQKsAT-ztNzQ-34" value="" style="endArrow=none;html=1;rounded=0;entryX=0;entryY=0.3333333333333333;entryDx=0;entryDy=0;entryPerimeter=0;fillColor=#54C0FF;" parent="1" target="scfHjUHLNQKsAT-ztNzQ-12" edge="1">
          <mxGeometry width="50" height="50" relative="1" as="geometry">
            <mxPoint x="1097" y="476" as="sourcePoint" />
            <mxPoint x="1276" y="607" as="targetPoint" />
          </mxGeometry>
        </mxCell>
      </root>
    </mxGraphModel>
  </diagram>
</mxfile>
